<svg width="900" height="600" viewBox="0 0 900 600" fill="none" xmlns="http://www.w3.org/2000/svg"><path fill="transparent" d="M0 0h900v600H0z"/><path d="m592.518 381.838-268.836 92.736c-18.591 1.138-36.969-.879-53.385-9.032-10.468-5.2-19.89-13.045-24.952-23.431-5.056-10.392-5.101-23.504 1.503-32.82l.002-.002a24.42 24.42 0 0 1 2.517-3.023c17.864-18.157 18.468-47.098 1.478-66.057l-.007-.008a6.685 6.685 0 0 1-.082-.09l-.1-.111-.001-.002c-.06-.067-.124-.138-.191-.21-2.295-2.553-4.635-5.084-6.976-7.617-5.439-5.885-10.889-11.781-15.824-17.987-7.044-8.86-12.968-18.27-16.186-28.988-6.52-21.73 0-46.74 15.902-62.978s40.427-23.33 62.687-18.683c9.887 2.061 19.077 6.17 28.04 11.047 4.482 2.437 8.897 5.062 13.314 7.714l1.816 1.092c3.807 2.29 7.622 4.584 11.469 6.769 17.817 10.12 38.976 18.422 59.066 12.82 17.123-4.776 29.89-18.688 40.834-32.271.922-1.144 1.843-2.294 2.764-3.445 10.062-12.575 20.215-25.264 34.276-32.41 7.619-3.868 16.823-5.446 25.266-4.266 8.44 1.179 16.042 5.096 20.605 12.139 5.746 8.863 5.359 19.778 4.838 31.122l-.027.597c-.508 11.025-1.034 22.425 4.614 31.904 3.287 5.519 8.153 9.51 13.448 12.944 2.648 1.717 5.421 3.306 8.169 4.875l.232.132c2.677 1.529 5.326 3.041 7.851 4.657 31.364 20.075 45.825 63.059 32.974 98.012-1.911 5.195-4.319 10.136-7.098 14.871z" fill="#fff" stroke="#E1E4E5" stroke-width="1.833"/><path d="m594.142 323.317-256.228 94.516c-17.818 1.47-35.488-.093-51.399-7.579-10.148-4.775-19.34-12.107-24.403-21.957l332.03-64.98zm0 0c2.565-4.593 4.77-9.375 6.494-14.388 11.617-33.793-3.132-74.736-33.629-93.356-2.456-1.499-5.03-2.897-7.632-4.311l-.223-.121c-2.671-1.451-5.368-2.921-7.948-4.517-5.159-3.192-9.924-6.933-13.203-12.18-5.628-9.008-5.355-19.985-5.092-30.575l.014-.584c.269-10.91.415-21.372-5.267-29.742-4.51-6.647-11.867-10.246-19.979-11.204-8.116-.959-16.907.741-24.131 4.603-13.34 7.141-22.822 19.519-32.23 31.802-.861 1.123-1.72 2.245-2.582 3.363-10.233 13.266-22.222 26.904-38.593 31.847-19.209 5.799-39.721-1.756-57.039-11.112-3.74-2.02-7.451-4.146-11.153-6.268l-1.767-1.011c-4.294-2.457-8.587-4.887-12.938-7.135-8.704-4.499-17.605-8.254-27.13-10.03-21.446-4.004-44.825 3.299-59.746 19.196-14.921 15.897-20.665 40.018-13.97 60.724 3.304 10.213 9.178 19.12 16.12 27.48 4.863 5.858 10.213 11.405 15.556 16.945a720.4 720.4 0 0 1 7.044 7.372l.001.002.094.1.084.089.008.008c16.729 17.889 16.739 45.739-.073 63.568a23.381 23.381 0 0 0-2.348 2.944l-.002.003c-6.132 9.052-5.827 21.611-.77 31.467l332.03-64.979z" fill="#fff" stroke="#E1E4E5" stroke-width="1.914"/><path d="m318.882 195.145 271.385 7.852c16.974 5.252 32.683 13.244 44.574 26.04 7.584 8.165 13.338 18.327 14.353 29.278 1.007 10.953-3.365 22.633-12.361 28.696l-.003.002a23.1 23.1 0 0 1-3.249 1.84c-22.145 10.221-32.478 35.942-23.672 58.672l.004.011.094.24.1.255c1.191 3.058 2.428 6.11 3.665 9.163 2.873 7.091 5.749 14.189 8.062 21.395 3.302 10.283 5.415 20.671 4.674 31.31-1.502 21.564-15.736 41.669-35.381 50.791-19.644 9.122-43.9 7.189-62.184-4.451-8.122-5.168-14.937-11.929-21.295-19.305-3.179-3.687-6.237-7.52-9.287-11.379l-1.255-1.588c-2.629-3.331-5.263-6.668-7.964-9.919-12.505-15.056-28.635-29.647-48.526-31.424l-.089.996.089-.996c-16.951-1.514-33.081 6.628-47.44 15.068-1.209.711-2.418 1.428-3.628 2.144-13.236 7.842-26.564 15.737-41.508 17.375-8.086.882-16.815-.809-23.938-4.699-7.118-3.888-12.558-9.926-14.249-17.713-2.133-9.811 1.874-19.392 6.17-29.359l.232-.539c4.169-9.666 8.498-19.703 6.644-30.114-1.08-6.067-4.093-11.292-7.669-16.152-1.788-2.431-3.732-4.789-5.658-7.117l-.161-.195c-1.876-2.27-3.731-4.512-5.439-6.805-21.212-28.469-19.631-71.682 3.604-98.527 3.444-3.978 7.244-7.565 11.306-10.846z" fill="#fff" stroke="#E1E4E5" stroke-width="2"/><path d="M580.265 118.751H326.084c-11.046 0-20 8.954-20 20v337.742c0 11.046 8.954 20 20 20h254.181c11.046 0 20-8.954 20-19.999V138.751c0-11.046-8.954-20-20-20z" fill="#f2336a"/><path d="M555.082 138.21H351.267c-11.046 0-20 8.955-20 20v188.935c0 11.046 8.954 20 20 20h203.815c11.046 0 20-8.954 20-20V158.21c0-11.045-8.954-20-20-20zM372.474 420.945h-33.196a9.158 9.158 0 0 0 0 18.315h33.196c5.058 0 9.157-4.1 9.157-9.157a9.157 9.157 0 0 0-9.157-9.158zm193.45 0H399.946a9.158 9.158 0 0 0 0 18.315h165.978a9.158 9.158 0 1 0 0-18.315zm.572-34.34h-227.79a8.585 8.585 0 0 0 0 17.17h227.79a8.586 8.586 0 1 0 0-17.17z" fill="#fff"/><path fill-rule="evenodd" clip-rule="evenodd" d="M510 299.107v8.133c0 4.49-3.616 8.134-8.071 8.134h-96.858c-4.455 0-8.071-3.644-8.071-8.134v-8.263c0-24.613 27.911-40.603 56.5-40.603s56.5 15.998 56.5 40.603m-37.201-100.109c10.935 11.325 10.935 29.687 0 41.012s-28.663 11.325-39.598 0c-10.935-11.325-10.935-29.687 0-41.012 10.935-11.326 28.663-11.326 39.598 0z" fill="#f2336a"/><path fill-rule="evenodd" clip-rule="evenodd" d="M202.074 123.988h2.981c.721 0 1.301.587 1.301 1.301v2.981c0 .721-.586 1.301-1.301 1.301h-2.981c-.714 0-1.3-.587-1.3-1.301v-2.981a1.298 1.298 0 0 1 1.3-1.301zm10.334 0h2.981c.715 0 1.301.587 1.301 1.301v2.981c0 .721-.586 1.301-1.301 1.301h-2.981c-.714 0-1.3-.587-1.3-1.301v-2.981c0-.714.586-1.301 1.3-1.301zm10.34 0h2.981c.714 0 1.301.587 1.301 1.301v2.981c0 .721-.587 1.301-1.301 1.301h-2.981a1.307 1.307 0 0 1-1.301-1.301v-2.981a1.3 1.3 0 0 1 1.301-1.301zm10.336 0h2.98c.715 0 1.301.587 1.301 1.301v2.981c0 .721-.586 1.301-1.301 1.301h-2.98a1.307 1.307 0 0 1-1.307-1.301v-2.981a1.315 1.315 0 0 1 1.307-1.301zm10.333 0h2.981c.721 0 1.307.587 1.307 1.301v2.981c0 .721-.586 1.301-1.307 1.301h-2.981c-.714 0-1.3-.587-1.3-1.301v-2.981c0-.714.586-1.301 1.3-1.301zm-30.63 11.269h2.981c.715 0 1.301.586 1.301 1.301v2.987c0 .714-.586 1.301-1.301 1.301h-2.981c-.72 0-1.301-.587-1.301-1.301v-2.981a1.3 1.3 0 0 1 1.301-1.307zm10.335 0h2.98c.715 0 1.301.586 1.301 1.301v2.987c0 .714-.586 1.301-1.301 1.301h-2.98a1.306 1.306 0 0 1-1.301-1.301v-2.981a1.3 1.3 0 0 1 1.301-1.307zm10.335 0h2.98c.721 0 1.307.586 1.307 1.301v2.987c0 .714-.586 1.301-1.307 1.301h-2.98a1.306 1.306 0 0 1-1.301-1.301v-2.981c0-.721.586-1.307 1.301-1.307zm-10.709-23.374h2.981c.714 0 1.301.586 1.301 1.301v2.98c0 .721-.587 1.301-1.301 1.301h-2.981a1.306 1.306 0 0 1-1.301-1.301v-2.98a1.298 1.298 0 0 1 1.301-1.301zm10.336 0h2.98c.715 0 1.301.586 1.301 1.301v2.98c0 .721-.586 1.301-1.301 1.301h-2.98a1.307 1.307 0 0 1-1.307-1.301v-2.98a1.315 1.315 0 0 1 1.307-1.301zm476.34 147.492h-2.494a1.09 1.09 0 0 0-1.089 1.089v2.494a1.09 1.09 0 0 0 1.089 1.089h2.494c.598 0 1.089-.491 1.089-1.089v-2.494a1.087 1.087 0 0 0-1.089-1.089zm-8.649 0h-2.495c-.598 0-1.089.491-1.089 1.089v2.494a1.09 1.09 0 0 0 1.089 1.089h2.495c.598 0 1.089-.491 1.089-1.089v-2.494c0-.598-.491-1.089-1.089-1.089zm-8.655 0h-2.494c-.598 0-1.089.491-1.089 1.089v2.494a1.09 1.09 0 0 0 1.089 1.089h2.494c.599 0 1.089-.491 1.089-1.089v-2.494a1.086 1.086 0 0 0-1.089-1.089zm-8.648 0h-2.495c-.598 0-1.088.491-1.088 1.089v2.494c0 .603.49 1.089 1.088 1.089h2.495c.603 0 1.094-.491 1.094-1.089v-2.494a1.101 1.101 0 0 0-1.094-1.089zm-8.649 0h-2.495c-.603 0-1.094.491-1.094 1.089v2.494c0 .603.491 1.089 1.094 1.089h2.495c.598 0 1.089-.491 1.089-1.089v-2.494c0-.598-.491-1.089-1.089-1.089zm25.636 9.431h-2.494c-.598 0-1.089.491-1.089 1.089v2.5c0 .598.491 1.089 1.089 1.089h2.494a1.09 1.09 0 0 0 1.089-1.089V269.9a1.087 1.087 0 0 0-1.089-1.094zm-8.65 0h-2.495c-.598 0-1.088.491-1.088 1.089v2.5c0 .598.49 1.089 1.088 1.089h2.495c.598 0 1.089-.491 1.089-1.089V269.9a1.088 1.088 0 0 0-1.089-1.094zm-8.649 0h-2.495c-.603 0-1.094.491-1.094 1.089v2.5c0 .598.491 1.089 1.094 1.089h2.495c.598 0 1.089-.491 1.089-1.089V269.9c0-.603-.491-1.094-1.089-1.094zm8.96-19.562h-2.494c-.598 0-1.089.49-1.089 1.088v2.495a1.09 1.09 0 0 0 1.089 1.089h2.494c.599 0 1.089-.491 1.089-1.089v-2.495a1.086 1.086 0 0 0-1.089-1.088zm-8.648 0h-2.495c-.598 0-1.088.49-1.088 1.088v2.495c0 .603.49 1.089 1.088 1.089h2.495c.603 0 1.094-.491 1.094-1.089v-2.495a1.1 1.1 0 0 0-1.094-1.088zm-56.45-132.854v3.967h3.964a3.029 3.029 0 0 1 3.014 3.017 3.028 3.028 0 0 1-3.014 3.016h-3.964v3.967a3.028 3.028 0 0 1-3.014 3.017 3.029 3.029 0 0 1-3.014-3.017v-3.95h-3.98A3.029 3.029 0 0 1 614 123.39a3.028 3.028 0 0 1 3.014-3.016h3.964v-3.984a3.03 3.03 0 0 1 3.03-3.016 3.027 3.027 0 0 1 3.014 3.016zm-33.14-27.793v5.554h5.748c2.399 0 4.37 1.905 4.37 4.223 0 2.318-1.971 4.223-4.37 4.223h-5.748v5.554c0 2.318-1.971 4.223-4.37 4.223s-4.37-1.905-4.37-4.223v-5.531h-5.772c-2.399 0-4.37-1.905-4.37-4.223 0-2.318 1.971-4.223 4.37-4.223h5.748v-5.577c0-2.318 1.971-4.223 4.394-4.223 2.399 0 4.37 1.905 4.37 4.223z" fill="#E1E4E5"/><path d="M639 169.374h-24m36-17h-36m21 33.5h-21" stroke="#E1E4E5" stroke-width="4.557" stroke-linecap="round" stroke-linejoin="round"/><path d="M231.903 352.374h.189C233.211 367.921 245 368.161 245 368.161s-13 .249-13 18.213c0-17.964-13-18.213-13-18.213s11.784-.24 12.903-15.787zm429.504-149h.181C662.664 215.263 674 215.446 674 215.446s-12.5.19-12.5 13.928c0-13.738-12.5-13.928-12.5-13.928s11.331-.183 12.407-12.072zm-375.489-97h.16c.947 11.889 10.922 12.072 10.922 12.072s-11 .19-11 13.928c0-13.738-11-13.928-11-13.928s9.971-.183 10.918-12.072z" fill="#E1E4E5"/><rect x="268" y="496.374" width="368" height="12" rx="6" fill="url(#a)"/><path fill-rule="evenodd" clip-rule="evenodd" d="M223.095 248.099c-19.281 0-34.913-15.632-34.913-34.912 0-19.281 15.632-34.913 34.913-34.913 19.28 0 34.912 15.632 34.912 34.913 0 19.28-15.632 34.912-34.912 34.912z" fill="#f2336a"/><path d="m234.734 207.896-14.544 14.812-8.731-8.886" stroke="#fff" stroke-width="6" stroke-linecap="round" stroke-linejoin="round"/><defs><linearGradient id="a" x1="459.846" y1="515.102" x2="459.834" y2="483.316" gradientUnits="userSpaceOnUse"><stop stop-color="#fff"/><stop offset="1" stop-color="#EEE"/></linearGradient></defs></svg>